<!-- <svg xmlns="http://www.w3.org/2000/svg" width="64" height="4">
    <path d="M14.4794 2.56869L7.37793 9.6702L9.96381 12.2947L17.0653 5.19316C18.8021 3.45638 21.581 3.41778 23.3949 5.07737L25.5563 7.20011L28.1421 4.61423L25.9808 2.4529C22.7774 -0.634714 17.6442 -0.596118 14.4794 2.56869Z"
          fill="#FC1264"/>
    <path d="M22.932 30.5116L30.6897 22.754L31.3844 22.0593C32.4264 21.0172 32.4264 19.2804 31.3844 18.2383L30.6897 17.5436L23.0092 9.86318L22.3145 9.16846C21.2724 8.12639 19.5356 8.12639 18.4936 9.16846L17.7989 9.86318L10.0026 17.5436L9.30792 18.2383C8.26585 19.2804 8.26585 21.0172 9.30792 22.0593L10.0026 22.754L17.6831 30.4344L18.3778 31.1291C19.4199 32.1712 21.1566 32.1712 22.1987 31.1291L22.932 30.5116ZM12.6271 20.1681L20.3847 12.4491L28.0652 20.1295L20.3075 27.8871L12.6271 20.1681Z"
          fill="#17124B"/>
    <path d="M23.5495 35.143C21.8127 36.8798 19.0339 36.9184 17.2199 35.2588L15.0586 33.0975L12.4341 35.722L14.5954 37.8833C17.8374 40.9709 22.9706 40.9323 26.1354 37.7289L33.2755 30.5888L30.6896 28.0029L23.5495 35.143Z"
          fill="#25CDE3"/>
    <path d="M33.314 25.3784L34.2017 26.2661L33.314 25.3784Z" fill="#25CDE3"/>
    <path d="M4.75342 12.2947L6.02706 13.6069L4.75342 12.2947Z" fill="#FC1264"/>
    <path d="M5.33232 23.4101C3.59554 21.6733 3.55694 18.8944 5.21654 17.0805L7.37787 14.9191L4.7534 12.2947L2.59207 14.456C-0.49555 17.698 -0.456954 22.8312 2.74645 25.996L9.84796 33.0975L12.4338 30.5116L5.33232 23.4101Z"
          fill="#FDB42B"/>
    <path d="M37.9452 14.3016L30.8437 7.20011L28.2578 9.78599L35.3593 16.8875C37.0961 18.6243 37.1347 21.4031 35.4751 23.2171L33.3524 25.3784L35.9383 27.9643L38.0996 25.803C41.1486 22.5996 41.11 17.505 37.9452 14.3016Z"
          fill="#22D685"/>
</svg>
 -->
<svg viewBox="0 0 38 38" fill="none" xmlns="http://www.w3.org/2000/svg">
                    <path d="M13.8205 2.64855L7.33011 9.13895L9.71136 11.5202L16.2018 5.0298C17.7889 3.44265 20.3363 3.41231 21.9764 4.91232L23.9484 6.85824L26.323 4.48334L24.3643 2.52437C21.4098 -0.289033 16.7211 -0.251991 13.8205 2.64855Z" fill="#FC1264"></path>
                    <path d="M12.1333 18.7388L19.2167 11.6554L26.2444 18.6831L19.161 25.7665L12.1333 18.7388ZM21.5592 28.1651L28.6426 21.0816L29.2917 20.4325C30.2576 19.4666 30.2576 17.9003 29.2917 16.934L28.6426 16.2849L21.6149 9.25723L20.9658 8.60847C19.9999 7.64221 18.4332 7.64221 17.4673 8.60847L16.8182 9.25723L9.73511 16.3407L9.086 16.9898C8.1201 17.9557 8.1201 19.522 9.086 20.4883L9.73511 21.1374L16.7628 28.1651L17.4116 28.8138C18.3778 29.7801 19.9441 29.7801 20.9101 28.8138L21.5592 28.1651Z" fill="white"></path>
                    <path d="M22.143 32.4252C20.5555 34.0123 18.0081 34.0427 16.3677 32.5423L16.3663 32.5441L14.3748 30.5523L11.9886 32.9388L13.9801 34.9302C16.9342 37.744 21.6234 37.7073 24.5243 34.8064L31.0475 28.2832L28.6662 25.902L22.143 32.4252Z" fill="#25CDE3"></path>
                    <path d="M31.0646 23.5038L31.8584 24.2972L31.0646 23.5038Z" fill="#25CDE3"></path>
                    <path d="M4.93164 11.5374L6.12227 12.728L4.93164 11.5374Z" fill="#FC1264"></path>
                    <path d="M5.4746 21.6751C3.88745 20.0883 3.85711 17.5405 5.35713 15.9005L7.32633 13.9316L4.93167 11.5373L2.96282 13.5062L2.96953 13.5129C0.15577 16.467 0.192812 21.1558 3.09335 24.0567L9.58376 30.5468L11.965 28.1655L5.4746 21.6751Z" fill="#FDB42B"></path>
                    <path d="M35.274 13.3757L28.7836 6.88529L26.4023 9.26654L32.8927 15.7569C34.4799 17.3441 34.5102 19.8915 33.0102 21.5316L31.0647 23.5036L33.4392 25.8781L35.3982 23.9192C38.2116 20.965 38.1745 16.2762 35.274 13.3757Z" fill="#22D685"></path>
</svg>